<svg width="30" height="40" viewBox="0 0 30 40" fill="none" xmlns="http://www.w3.org/2000/svg">
<g clip-path="url(#clip0_11_95)">
<mask id="mask0_11_95" style="mask-type:luminance" maskUnits="userSpaceOnUse" x="0" y="0" width="30" height="40">
<path d="M29.9839 0H0V39.9512H29.9839V0Z" fill="white"/>
</mask>
<g mask="url(#mask0_11_95)">
<path d="M26.4719 23.7892C28.2218 23.7892 29.6403 22.3982 29.6403 20.6822C29.6403 18.9664 28.2218 17.5753 26.4719 17.5753C24.722 17.5753 23.3035 18.9664 23.3035 20.6822C23.3035 22.3982 24.722 23.7892 26.4719 23.7892Z" fill="#F9CDB7"/>
<path d="M25.5229 23.4425C25.9948 23.5759 26.4917 23.5999 26.9747 23.5126C27.4576 23.4254 27.9132 23.2293 28.3056 22.9398C28.6979 22.6503 29.0163 22.2753 29.2356 21.8444C29.4549 21.4136 29.569 20.9387 29.569 20.4571C29.569 19.9756 29.4549 19.5007 29.2356 19.0699C29.0163 18.639 28.6979 18.264 28.3056 17.9745C27.9132 17.6849 27.4576 17.4888 26.9747 17.4016C26.4917 17.3144 25.9948 17.3384 25.5229 17.4717C26.1829 17.6589 26.7629 18.0512 27.1757 18.5897C27.5885 19.1281 27.8117 19.7835 27.8117 20.4571C27.8117 21.1307 27.5885 21.7862 27.1757 22.3246C26.7629 22.863 26.1829 23.2554 25.5229 23.4425Z" fill="#E2A78D"/>
<path d="M3.51273 23.7892C5.26257 23.7892 6.6811 22.3982 6.6811 20.6822C6.6811 18.9664 5.26257 17.5753 3.51273 17.5753C1.76289 17.5753 0.34436 18.9664 0.34436 20.6822C0.34436 22.3982 1.76289 23.7892 3.51273 23.7892Z" fill="#F9CDB7"/>
<path d="M4.23974 23.5926C3.76791 23.726 3.27093 23.75 2.78802 23.6627C2.30511 23.5755 1.84949 23.3793 1.45712 23.0899C1.06475 22.8004 0.74637 22.4253 0.527114 21.9945C0.307858 21.5637 0.193726 21.0888 0.193726 20.6072C0.193726 20.1257 0.307858 19.6508 0.527114 19.2199C0.74637 18.7891 1.06475 18.4141 1.45712 18.1246C1.84949 17.835 2.30511 17.6389 2.78802 17.5517C3.27093 17.4644 3.76791 17.4885 4.23974 17.6218C3.57983 17.809 2.9998 18.2013 2.58701 18.7398C2.17421 19.2782 1.95101 19.9336 1.95101 20.6072C1.95101 21.2808 2.17421 21.9363 2.58701 22.4747C2.9998 23.0131 3.57983 23.4055 4.23974 23.5926Z" fill="#E2A78D"/>
<path d="M3.51273 24.0197C2.81794 24.0198 2.1387 23.8179 1.56094 23.4395C0.983169 23.0611 0.53281 22.5232 0.26682 21.8937C0.000830922 21.2643 -0.0688426 20.5717 0.0666115 19.9034C0.202065 19.2352 0.536562 18.6213 1.0278 18.1395C1.51904 17.6577 2.14495 17.3295 2.82638 17.1965C3.50781 17.0636 4.21415 17.1318 4.85606 17.3925C5.49798 17.6531 6.04664 18.0947 6.43266 18.6612C6.81868 19.2276 7.02472 19.8937 7.02472 20.575C7.0227 21.4878 6.65206 22.3627 5.9939 23.0083C5.33573 23.6538 4.44362 24.0175 3.51273 24.0197ZM3.51273 17.8065C2.95413 17.8064 2.40804 17.9686 1.94352 18.2729C1.479 18.5771 1.11693 19.0096 0.903095 19.5156C0.689258 20.0217 0.633269 20.5785 0.742209 21.1158C0.851146 21.6531 1.12012 22.1466 1.51511 22.5339C1.91009 22.9212 2.41335 23.185 2.96122 23.2918C3.50909 23.3986 4.07696 23.3437 4.59301 23.134C5.10906 22.9244 5.55009 22.5693 5.86033 22.1138C6.17058 21.6582 6.3361 21.1228 6.33594 20.575C6.33493 19.841 6.03716 19.1375 5.50793 18.6185C4.97869 18.0995 4.26118 17.8075 3.51273 17.8065Z" fill="#213346"/>
<path d="M1.62779 21.0885C1.61684 21.0892 1.60584 21.0892 1.59488 21.0885C1.52443 21.0798 1.46032 21.0442 1.41659 20.9893C1.37284 20.9345 1.35303 20.8649 1.36146 20.7958C1.49692 19.7144 1.96758 19.1785 2.33799 18.9196C2.58105 18.7428 2.86921 18.6353 3.17064 18.6089C3.24169 18.6061 3.31095 18.6311 3.36319 18.6784C3.41543 18.7257 3.44638 18.7914 3.44922 18.8611C3.45206 18.9307 3.42656 18.9986 3.37834 19.0499C3.33012 19.1011 3.26312 19.1315 3.19207 19.1342C3.14233 19.1342 2.09922 19.2175 1.89105 20.8603C1.88257 20.9231 1.85126 20.9807 1.8029 21.0226C1.75452 21.0645 1.69234 21.0879 1.62779 21.0885Z" fill="#213346"/>
<path d="M2.57524 21.6293C2.55413 21.6293 2.5331 21.627 2.51249 21.6226C2.47825 21.6145 2.44597 21.6 2.41749 21.5797C2.389 21.5595 2.36487 21.5339 2.34645 21.5045C2.32805 21.475 2.31573 21.4424 2.31021 21.4083C2.30468 21.3742 2.30607 21.3394 2.31427 21.3059C2.3923 21.0227 2.41821 20.7282 2.3908 20.4361C2.36695 20.1735 2.2474 19.9281 2.05407 19.7449C2.02688 19.7222 2.00458 19.6945 1.98847 19.6633C1.97237 19.632 1.9628 19.598 1.96031 19.5631C1.95782 19.5282 1.96247 19.4931 1.97398 19.46C1.98549 19.4269 2.00363 19.3963 2.02734 19.3702C2.05105 19.3441 2.07984 19.3228 2.11203 19.3078C2.14423 19.2927 2.17917 19.284 2.21481 19.2824C2.25045 19.2807 2.28607 19.2861 2.31958 19.2981C2.35309 19.3101 2.38381 19.3285 2.40994 19.3524C2.70084 19.6201 2.88276 19.9822 2.92193 20.3715C2.95747 20.7258 2.92739 21.0836 2.83315 21.4275C2.81931 21.4845 2.7864 21.5354 2.73966 21.5719C2.69292 21.6085 2.63504 21.6287 2.57524 21.6293Z" fill="#213346"/>
<path d="M26.4719 24.0197C25.7771 24.0198 25.0979 23.8179 24.5201 23.4395C23.9423 23.0611 23.4919 22.5232 23.226 21.8937C22.96 21.2643 22.8903 20.5717 23.0258 19.9034C23.1612 19.2352 23.4957 18.6213 23.9869 18.1395C24.4782 17.6577 25.1041 17.3295 25.7856 17.1965C26.467 17.0636 27.1733 17.1318 27.8152 17.3925C28.4572 17.6531 29.0058 18.0947 29.3918 18.6612C29.7779 19.2276 29.9839 19.8937 29.9839 20.575C29.9819 21.4878 29.6112 22.3627 28.9531 23.0083C28.2949 23.6538 27.4028 24.0175 26.4719 24.0197ZM26.4719 17.8065C25.9133 17.8064 25.3672 17.9686 24.9027 18.2729C24.4382 18.5771 24.0761 19.0096 23.8623 19.5156C23.6484 20.0217 23.5924 20.5785 23.7014 21.1158C23.8103 21.6531 24.0793 22.1466 24.4743 22.5339C24.8693 22.9212 25.3725 23.185 25.9204 23.2918C26.4682 23.3986 27.0361 23.3437 27.5522 23.134C28.0682 22.9244 28.5093 22.5693 28.8195 22.1138C29.1297 21.6582 29.2953 21.1228 29.2951 20.575C29.2941 19.841 28.9963 19.1375 28.4671 18.6185C27.9378 18.0995 27.2204 17.8075 26.4719 17.8065Z" fill="#213346"/>
<path d="M28.3561 21.0883C28.2908 21.0882 28.2278 21.0648 28.1789 21.0224C28.13 20.9799 28.0986 20.9215 28.0905 20.8579C27.8847 19.2114 26.8362 19.1318 26.7895 19.1318C26.7189 19.1279 26.6526 19.097 26.6051 19.0456C26.5576 18.9942 26.5325 18.9265 26.5354 18.8572C26.5367 18.8229 26.5449 18.7893 26.5594 18.7583C26.5739 18.7271 26.5946 18.6991 26.6202 18.6758C26.6458 18.6526 26.6758 18.6344 26.7086 18.6226C26.7413 18.6106 26.7761 18.6052 26.811 18.6065C27.1124 18.6328 27.4005 18.7404 27.6436 18.9172C28.0148 19.1761 28.4854 19.7119 28.6201 20.7934C28.6296 20.862 28.611 20.9315 28.5683 20.9867C28.5258 21.0419 28.4627 21.0785 28.3928 21.0883C28.3806 21.0893 28.3684 21.0893 28.3561 21.0883Z" fill="#213346"/>
<path d="M27.4094 21.6294C27.3492 21.6294 27.2907 21.6095 27.2435 21.5729C27.1962 21.5362 27.163 21.485 27.1492 21.4275C27.0543 21.0835 27.024 20.7255 27.0597 20.3709C27.0993 19.9819 27.2811 19.6202 27.5716 19.3525C27.5979 19.3295 27.6286 19.3119 27.6618 19.3005C27.695 19.2891 27.7302 19.2843 27.7653 19.2863C27.8005 19.2883 27.8349 19.297 27.8666 19.312C27.8983 19.3271 27.9267 19.348 27.9501 19.3739C27.9735 19.3996 27.9915 19.4297 28.0031 19.4623C28.0147 19.4948 28.0196 19.5294 28.0176 19.5638C28.0155 19.5983 28.0066 19.632 27.9913 19.6631C27.976 19.6942 27.9545 19.722 27.9283 19.745C27.7347 19.9279 27.615 20.1734 27.5915 20.4362C27.5634 20.7282 27.5893 21.0229 27.6681 21.3059C27.6842 21.3738 27.6724 21.4452 27.6351 21.5044C27.5978 21.5637 27.5381 21.6062 27.4691 21.6226C27.4495 21.6269 27.4294 21.6292 27.4094 21.6294Z" fill="#213346"/>
<path d="M15.0436 4.57785H15.2571C18.2225 4.57785 21.0665 5.73302 23.1633 7.78926C25.2602 9.84547 26.4382 12.6343 26.4382 15.5422V22.6717C26.4389 24.1255 26.1476 25.5652 25.5808 26.9087C25.014 28.2521 24.1829 29.4729 23.1349 30.5012C22.087 31.5297 20.8427 32.3456 19.4732 32.9024C18.1036 33.4591 16.6356 33.746 15.153 33.7463C12.1592 33.7463 9.28794 32.5801 7.17101 30.5042C5.05405 28.4283 3.86475 25.6127 3.86475 22.6769V15.5475C3.86404 14.1074 4.15266 12.6812 4.71411 11.3505C5.27555 10.0198 6.09883 8.81057 7.13692 7.79188C8.17503 6.77323 9.40755 5.96508 10.7642 5.41361C12.1209 4.86214 13.575 4.57814 15.0436 4.57785Z" fill="#F9CDB7"/>
<path d="M16.5842 33.5237C16.0697 33.5939 15.5509 33.6293 15.0314 33.6296C8.82167 33.6296 3.7431 28.6487 3.7431 22.5601V15.2806C3.7431 9.32937 8.70764 4.4603 14.7765 4.4603H15.2854C15.7203 4.4598 16.1547 4.48486 16.5865 4.53535C11.6525 5.11171 7.37907 9.51924 6.59463 14.4318C6.35302 15.9987 6.01231 17.5494 5.57448 19.075L4.5528 22.5601C4.5528 28.1324 11.1023 32.7763 16.5842 33.5237Z" fill="#E2A78D"/>
<path d="M15.0313 34.0843C11.9488 34.0758 8.99506 32.8712 6.8154 30.7338C4.63574 28.5964 3.40737 25.6999 3.39868 22.6771V15.5439C3.40676 12.549 4.62355 9.679 6.78308 7.56118C8.94264 5.44339 11.8693 4.25001 14.9234 4.24188H15.1369C18.1914 4.24961 21.1184 5.44282 23.2783 7.56065C25.4381 9.67855 26.6551 12.5488 26.6632 15.5439V22.6771C26.6541 25.6998 25.4256 28.5961 23.2461 30.7334C21.0665 32.8707 18.1129 34.0754 15.0306 34.0843H15.0313ZM14.9234 4.9173C12.0518 4.92523 9.30019 6.04736 7.26962 8.03855C5.23909 10.0297 4.09477 12.728 4.08669 15.5439V22.6771C4.09538 25.5208 5.25117 28.2455 7.30167 30.2562C9.35215 32.267 12.1307 33.4004 15.0306 33.4088C17.9304 33.4004 20.709 32.267 22.7595 30.2562C24.81 28.2455 25.9658 25.5208 25.9744 22.6771V15.5439C25.9663 12.728 24.8221 10.0297 22.7915 8.03855C20.761 6.04736 18.0093 4.92523 15.1377 4.9173H14.9234Z" fill="#213346"/>
<path d="M25.2888 20.8255V20.8405C25.2467 20.842 25.2635 20.8323 25.2888 20.8255Z" fill="#BFE1EE"/>
<path d="M14.5133 39.3405C22.1098 39.3405 28.2681 37.5644 28.2681 35.3735C28.2681 33.1826 22.1098 31.4065 14.5133 31.4065C6.91668 31.4065 0.758423 33.1826 0.758423 35.3735C0.758423 37.5644 6.91668 39.3405 14.5133 39.3405Z" fill="#DFE7EA"/>
<path d="M26.077 24.4325C27.6956 27.3286 27.1806 30.1519 27.2372 32.8461L26.3609 31.8952C26.0322 33.5753 25.2363 35.1336 24.0612 36.398C23.8042 35.9371 23.439 35.5427 22.9959 35.2476C22.6722 36.6658 21.9045 37.9494 20.8002 38.9188C20.956 38.5493 21.0294 38.1514 21.0154 37.7519C21.0014 37.3522 20.9004 36.9603 20.7191 36.6021C20.5249 37.194 20.2056 37.7391 19.7818 38.2017C19.3582 38.6643 18.8396 39.034 18.2602 39.2866C18.4425 39.0353 18.5567 38.7427 18.5919 38.4363C18.6271 38.1299 18.5821 37.8197 18.4615 37.535C17.5691 39.0202 15.0038 39.0652 14.0586 37.61C13.9928 37.9035 14.041 38.2892 14.3464 38.314C13.0607 38.5083 11.8836 37.977 10.999 37.0419C11.0532 37.5723 11.3093 38.0632 11.716 38.4168C11.0291 38.3739 10.3657 38.1548 9.79237 37.7814C9.21901 37.408 8.75569 36.8934 8.44895 36.2892C6.78977 36.3905 5.13288 35.2761 4.63237 33.7218C4.66697 33.8528 4.66612 33.9904 4.62987 34.1209C4.59363 34.2515 4.52327 34.3706 4.42574 34.4663C1.55967 33.0389 1.71273 26.6419 3.59003 24.5309C3.59003 24.5309 7.5413 25.1522 9.94207 26.9376C11.4727 28.0768 14.1115 25.4885 16.3416 25.4794C18.2097 25.4712 19.2084 27.7946 20.4053 26.6922C23.5714 23.7766 26.0495 24.383 26.077 24.4325Z" fill="#E99A4F"/>
<path d="M27.3482 32.5119L26.4719 31.5603C26.1437 33.2398 25.3492 34.7979 24.176 36.0631C23.9188 35.6022 23.5537 35.2076 23.1107 34.9119C22.7872 36.3303 22.0194 37.6139 20.915 38.5832C21.0706 38.2136 21.1439 37.8158 21.1299 37.4163C21.1159 37.0167 21.015 36.6247 20.8339 36.2665C20.6393 36.8586 20.3193 37.4037 19.8949 37.866C19.4704 38.3283 18.9513 38.6976 18.3712 38.9494C18.5534 38.6982 18.6674 38.4058 18.7026 38.0995C18.7378 37.7932 18.693 37.4832 18.5724 37.1986C17.6801 38.6837 15.1148 38.7288 14.1696 37.2736C14.103 37.5678 14.178 38.6477 14.4842 38.6732C13.1984 38.8669 11.9946 37.6413 11.1099 36.7055C11.1612 37.2308 11.2944 38.1757 11.6977 38.5239C10.3278 38.4556 9.15534 37.164 8.55993 35.9528C6.90075 36.0541 5.24387 34.9397 4.74336 33.3854C4.77794 33.5165 4.77707 33.6543 4.74084 33.7849C4.7046 33.9156 4.63425 34.0347 4.53672 34.1306C3.54642 33.6383 2.89285 32.5704 2.54004 31.2879C3.80739 32.1952 5.29897 32.8158 6.77371 33.3734C7.77472 33.7487 8.78876 34.1111 9.84411 34.2995C10.8681 34.4819 11.9143 34.4999 12.9551 34.5179C15.8426 34.5667 18.8479 34.5929 21.4607 33.3757C22.2092 33.0267 22.9982 32.4301 22.9722 31.6173C22.9423 30.6882 21.9061 30.1584 21.0222 29.826C22.9048 29.552 24.4492 28.1201 25.3079 26.4549C25.629 25.822 25.8826 25.1583 26.0648 24.4744L26.3181 24.668C27.0918 27.3284 27.2916 29.8177 27.3482 32.5119Z" fill="#CE7149"/>
<path d="M13.7984 25.5911L9.98415 26.9854L3.70864 24.1929C3.29431 24.6634 2.97976 25.2101 2.78339 25.8012C4.09528 26.0996 5.3692 26.5403 6.5816 27.1153C7.17795 27.3934 7.75887 27.7023 8.32191 28.0406C8.62803 28.2252 9.27471 28.8293 9.65507 28.7828C9.76933 28.76 9.87709 28.7126 9.97038 28.644C13.4609 26.4428 16.0224 26.346 20.1145 27.0635L18.1944 25.9663L13.7984 25.5911Z" fill="#E99A4F"/>
<path d="M20.002 39.9514L20.5936 38.5743C20.7554 38.1932 20.8159 37.778 20.7696 37.3676C20.257 38.2606 19.4641 38.9676 18.5089 39.3833L17.3441 39.8824L18.0926 38.8745C18.2592 38.6445 18.3546 38.3721 18.3673 38.0903C17.8592 38.5308 17.165 38.7874 16.3974 38.801C15.8047 38.8187 15.2192 38.6707 14.7092 38.3739C14.7934 38.7859 14.798 39.1529 14.4719 39.2993L14.3281 39.3646L14.1842 39.2993C13.1288 38.822 12.3008 38.3304 11.6059 37.7601C11.723 38.2329 11.8569 38.4025 11.925 38.461L12.6681 39.1011L11.6801 39.0516C10.2161 38.9766 9.00152 37.6332 8.35101 36.425H8.34642C6.92448 36.425 5.55458 35.6422 4.813 34.464L4.77703 34.5L4.60101 34.6719L4.3806 34.5623C3.29081 34.0152 2.50254 32.7807 2.16657 31.0816C1.67448 28.5931 2.23392 25.5844 3.44387 24.2276C3.47362 24.1942 3.50979 24.1669 3.55031 24.1471C3.59082 24.1275 3.63491 24.1158 3.68004 24.1128C3.72517 24.1098 3.77045 24.1156 3.81331 24.1297C3.85617 24.1438 3.89577 24.1662 3.92984 24.1953C3.9639 24.2245 3.99178 24.26 4.01187 24.2997C4.03197 24.3395 4.04388 24.3827 4.04694 24.4269C4.04999 24.4712 4.04413 24.5156 4.02969 24.5577C4.01524 24.5997 3.99249 24.6385 3.96275 24.6719C2.87984 25.8891 2.38851 28.6494 2.84463 30.9533C3.10867 32.2846 3.66198 33.2798 4.41734 33.7938C4.43157 33.7304 4.42999 33.6644 4.41275 33.6017L5.07397 33.4111C5.52474 34.81 7.04846 35.8336 8.54081 35.7428L8.7704 35.7285L8.87142 35.9334C9.46836 37.1484 10.2911 37.8884 11.0204 38.1991C10.8885 37.7633 10.8042 37.315 10.7686 36.8617L10.6699 35.8726L11.3625 36.6043C12.0513 37.3315 12.8847 37.9199 14.0281 38.4805C14.0013 38.3574 13.9684 38.2268 13.9446 38.1338C13.8451 37.7458 13.7916 37.5169 13.8329 37.3315L14.0112 36.533L14.4597 37.222C14.8385 37.8043 15.5587 38.1435 16.3844 38.1293C17.2102 38.115 17.915 37.7541 18.2755 37.1537L18.6207 36.5788L18.8885 37.192C19.0404 37.5425 19.0933 37.9267 19.0416 38.3041C19.7297 37.7975 20.2407 37.094 20.5041 36.2906L20.7559 35.4974L21.1385 36.2396C21.3588 36.6725 21.4736 37.1496 21.4737 37.6332C22.1061 36.8509 22.5496 35.9382 22.7709 34.9638L22.8804 34.4775L23.3005 34.7574C23.6537 34.9929 23.963 35.2861 24.215 35.6242C25.1832 34.4678 25.8427 33.0935 26.1344 31.625L26.2638 30.9578L27.065 31.8276C27.2303 29.0066 26.8071 26.7034 25.751 24.6298C25.7247 24.59 25.7072 24.5451 25.6997 24.4981C25.6923 24.4512 25.695 24.4033 25.7078 24.3574C25.7205 24.3116 25.743 24.2689 25.7737 24.2321C25.8044 24.1954 25.8427 24.1654 25.886 24.1441C25.9293 24.1229 25.9768 24.1109 26.0251 24.1088C26.0736 24.1068 26.1219 24.1147 26.167 24.1323C26.212 24.1498 26.2527 24.1764 26.2866 24.2104C26.3204 24.2445 26.3466 24.2851 26.3633 24.3297C27.5747 26.7086 27.9957 29.3578 27.688 32.6711L27.6168 33.4396L26.6579 32.3987C26.2555 33.8959 25.4887 35.2749 24.4232 36.4175L24.0972 36.7664L23.8676 36.3507C23.7179 36.0833 23.5274 35.8398 23.3028 35.6287C22.9068 36.9135 22.1577 38.0666 21.1377 38.9616L20.002 39.9514Z" fill="#213346"/>
<path d="M12.4806 32.0737C12.275 32.0732 12.0781 31.9931 11.9326 31.8506C11.7872 31.7081 11.7052 31.515 11.7046 31.3135V28.4047C11.7052 28.203 11.7872 28.0098 11.9326 27.8672C12.078 27.7246 12.275 27.6442 12.4806 27.6437H17.9082C18.1136 27.6444 18.3105 27.7249 18.4557 27.8675C18.601 28.01 18.6828 28.2031 18.6834 28.4047V31.3135C18.6828 31.5149 18.6009 31.7079 18.4557 31.8504C18.3104 31.9928 18.1136 32.0731 17.9082 32.0737" fill="#F9CDB7"/>
<path d="M18.815 28.7213V29.6219C18.7547 29.4861 18.6554 29.3704 18.5291 29.2892C18.4029 29.2078 18.2551 29.1643 18.1041 29.1641H12.6742C12.4687 29.1645 12.2716 29.2447 12.1262 29.3872C11.9808 29.5297 11.8988 29.7228 11.8982 29.9243V31.9326C11.8561 31.8379 11.8342 31.7358 11.8339 31.6324V28.7213C11.8345 28.5199 11.9164 28.3269 12.0617 28.1845C12.2069 28.042 12.4038 27.9617 12.6092 27.9611H18.0429C18.2477 27.9625 18.4438 28.0431 18.5884 28.1855C18.733 28.3279 18.8144 28.5204 18.815 28.7213Z" fill="#E2A78D"/>
<path d="M15.163 27.556C15.7232 27.556 16.2704 27.556 16.7985 27.5635L17.576 27.5725H17.7658H17.8599H17.886H17.9204L17.9885 27.577C18.1681 27.597 18.3402 27.6587 18.4906 27.7571C18.6335 27.8503 18.7527 27.9746 18.839 28.1202C18.9252 28.2658 18.9762 28.4289 18.988 28.5969V28.6577V28.7087V28.792L18.9796 28.9684C18.9796 29.0772 18.9735 29.1853 18.9696 29.2911C18.9559 29.7143 18.9406 30.1091 18.923 30.4686C18.9053 30.828 18.8862 31.1545 18.8656 31.4404C18.8656 31.4765 18.861 31.5117 18.8579 31.5462C18.8579 31.5635 18.8579 31.5808 18.8579 31.5973C18.8579 31.6138 18.8541 31.6386 18.8518 31.6581C18.8423 31.7377 18.8225 31.8159 18.7928 31.8907C18.7405 32.0175 18.6594 32.1309 18.5556 32.2224C18.42 32.3438 18.2447 32.414 18.0612 32.4205C18.0149 32.4222 17.9687 32.4153 17.925 32.4003C17.8951 32.389 17.8806 32.377 17.8806 32.3635C17.8806 32.35 17.8951 32.3372 17.9204 32.323L18.0283 32.2719C18.1515 32.214 18.2583 32.1271 18.339 32.019C18.3907 31.9465 18.4269 31.8646 18.4454 31.7781C18.4545 31.7306 18.4579 31.6822 18.4553 31.634V31.5943C18.4553 31.5778 18.4553 31.5605 18.4515 31.5432C18.4515 31.5087 18.4462 31.4734 18.4439 31.4374C18.4232 31.1515 18.4041 30.8258 18.3872 30.4656C18.3704 30.1053 18.3536 29.7113 18.3398 29.2881C18.3398 29.1823 18.3329 29.0742 18.3298 28.9654L18.3252 28.7995V28.7162V28.6952V28.6832V28.6592C18.3166 28.5953 18.2934 28.5343 18.2574 28.4805C18.2213 28.4267 18.1734 28.3816 18.1171 28.3485C18.0602 28.3153 17.9963 28.2955 17.9303 28.2907H17.8722H17.7781H17.5883L16.8107 28.2997C16.2826 28.305 15.7355 28.308 15.1752 28.308C14.615 28.308 14.0678 28.308 13.5398 28.2997L12.7492 28.293H12.5602H12.4661H12.4079C12.3419 28.2978 12.278 28.3176 12.2212 28.3507C12.1648 28.3838 12.1169 28.4289 12.0809 28.4828C12.0448 28.5366 12.0217 28.5976 12.013 28.6614V28.6855V28.6975V28.7185V28.8018L12.0084 28.9676C12.0084 29.0764 12.0015 29.1845 11.9985 29.2903C11.9847 29.7136 11.9686 30.1083 11.951 30.4678C11.9334 30.8273 11.915 31.1537 11.8944 31.4397C11.8944 31.4757 11.889 31.511 11.8867 31.5455C11.8867 31.5628 11.8867 31.58 11.8867 31.5965V31.6363C11.8842 31.6845 11.8876 31.7329 11.8967 31.7804C11.9149 31.867 11.9511 31.9489 12.0031 32.0213C12.0835 32.1297 12.1902 32.2166 12.3138 32.2742L12.4209 32.3252C12.4469 32.3395 12.4607 32.353 12.4607 32.3658C12.4607 32.3785 12.4469 32.3913 12.4171 32.4025C12.3734 32.4175 12.3272 32.4244 12.2809 32.4228C12.0959 32.416 11.9195 32.3447 11.7834 32.2217C11.6799 32.1301 11.599 32.0166 11.5469 31.89C11.5173 31.8151 11.4975 31.7369 11.488 31.6573C11.488 31.6378 11.4826 31.613 11.4819 31.5965L11.4773 31.5455C11.4773 31.511 11.4727 31.4757 11.4696 31.4397C11.4497 31.1537 11.4306 30.828 11.413 30.4678C11.3954 30.1076 11.3801 29.7136 11.3663 29.2903C11.3663 29.1845 11.3594 29.0764 11.3564 28.9676C11.3564 28.9128 11.3525 28.8573 11.351 28.8018V28.7185V28.6682V28.6074C11.3699 28.3497 11.4803 28.1066 11.6628 27.9203C11.8454 27.734 12.0887 27.6163 12.3505 27.5875L12.4186 27.583H12.4531H12.4791H12.5732H12.7622L13.5406 27.574C14.0556 27.5583 14.6028 27.556 15.163 27.556Z" fill="#213346"/>
<path d="M4.55204 25.9925C4.53447 26.2285 4.54707 26.4657 4.58954 26.6987C4.63633 26.9395 4.71345 27.1737 4.81913 27.3959C4.64684 27.2052 4.49953 26.9942 4.38061 26.7677C4.26143 26.5317 4.17249 26.2822 4.11581 26.0248C4.05837 25.7607 4.03268 25.491 4.03928 25.221C4.04243 25.0834 4.05316 24.9462 4.07142 24.8097C4.08942 24.6655 4.11937 24.523 4.16096 24.3835L4.95765 24.7257C4.89874 24.8134 4.84754 24.9057 4.80459 25.0019C4.7583 25.1048 4.71743 25.2101 4.68214 25.3171C4.61236 25.5366 4.56871 25.7632 4.55204 25.9925Z" fill="#213346"/>
<path d="M5.73977 26.6343C5.80176 27.1896 6.05354 27.745 6.41783 28.226C5.92379 27.8324 5.54422 27.318 5.31732 26.7348C5.20244 26.4231 5.14265 26.0945 5.14053 25.763C5.13759 25.4125 5.20603 25.065 5.34181 24.7408L6.10711 25.1446C5.8163 25.5288 5.67931 26.0842 5.73977 26.6343Z" fill="#213346"/>
<path d="M7.90712 27.0524C7.96942 27.5913 8.14789 28.1111 8.43059 28.5773C8.01687 28.1745 7.69475 27.6903 7.48544 27.1567C7.26217 26.5962 7.16278 25.9956 7.19386 25.3946L8.051 25.5387C7.89327 26.0274 7.84421 26.5435 7.90712 27.0524Z" fill="#213346"/>
<path d="M22.0148 26.7474C22.0437 26.9669 22.0356 27.1895 21.991 27.4064C21.9528 27.5737 21.8946 27.6713 21.838 27.6675C21.7285 27.6563 21.6849 27.263 21.6222 26.7932C21.5594 26.3234 21.5181 25.9294 21.6222 25.8927C21.6727 25.8761 21.753 25.958 21.8303 26.111C21.9269 26.3119 21.9893 26.5269 22.0148 26.7474Z" fill="#213346"/>
<path d="M23.739 26.3034C23.7332 26.6158 23.6713 26.9247 23.5561 27.216C23.4635 27.4411 23.3655 27.5567 23.3158 27.5394C23.2109 27.5004 23.3349 26.9593 23.3479 26.2929C23.3609 25.6265 23.2752 25.0801 23.3823 25.0471C23.4321 25.0328 23.5239 25.1559 23.605 25.3826C23.7042 25.6795 23.7495 25.9911 23.739 26.3034Z" fill="#213346"/>
<path d="M25.5543 26.0279C25.5876 26.257 25.6004 26.4885 25.5926 26.7198C25.5864 26.9084 25.5638 27.0963 25.5252 27.2812C25.4571 27.5956 25.363 27.7757 25.3132 27.7652C25.2007 27.742 25.3063 26.987 25.167 26.0827C25.0278 25.1784 24.7308 24.4752 24.8334 24.4234C24.8793 24.4001 25.0178 24.5495 25.1709 24.8331C25.2593 25.0003 25.3337 25.1742 25.3936 25.3532C25.4659 25.5734 25.5196 25.7991 25.5543 26.0279Z" fill="#213346"/>
<path d="M5.22318 33.706C5.19327 33.4911 5.1866 33.2738 5.20328 33.0576C5.21157 32.9637 5.22485 32.8702 5.24308 32.7776C5.25853 32.697 5.27872 32.6173 5.30354 32.539C5.39461 32.2515 5.50864 32.0977 5.55608 32.1142C5.60353 32.1307 5.59205 32.3116 5.57522 32.5885C5.57522 32.6576 5.56604 32.7326 5.56528 32.8136C5.56451 32.8947 5.56528 32.9803 5.56528 33.0696C5.56962 33.2644 5.58521 33.4588 5.61196 33.6519C5.64178 33.8437 5.68163 34.0338 5.73135 34.2215C5.75737 34.3078 5.77956 34.3911 5.80788 34.4669C5.83619 34.5427 5.85839 34.617 5.88441 34.6808C5.97931 34.9412 6.04818 35.1086 6.00149 35.1409C5.95482 35.1731 5.80711 35.0538 5.63722 34.8024C5.59046 34.735 5.54803 34.6648 5.51017 34.5923C5.46602 34.5084 5.42643 34.4221 5.39154 34.3341C5.31312 34.1311 5.25668 33.9206 5.22318 33.706Z" fill="#213346"/>
<path d="M7.67752 34.7469C7.6291 34.4004 7.62756 34.0492 7.67292 33.7023C7.70889 33.4389 7.76246 33.279 7.81604 33.2798C7.86961 33.2805 7.914 33.4441 7.9492 33.7023C7.9844 33.9604 8.01042 34.3147 8.06476 34.6929C8.09308 34.8813 8.12752 35.0576 8.16425 35.2182C8.18644 35.2933 8.20252 35.3728 8.22548 35.4434C8.23519 35.4784 8.24514 35.5122 8.25532 35.5447L8.2867 35.637C8.36323 35.8726 8.43134 36.0242 8.38542 36.058C8.33951 36.0918 8.19716 35.9889 8.03951 35.7578L7.97981 35.6655C7.96068 35.6332 7.94308 35.598 7.92394 35.5612C7.88461 35.4836 7.84956 35.4039 7.8191 35.3225C7.75336 35.1355 7.70591 34.9428 7.67752 34.7469Z" fill="#213346"/>
<path d="M10.6048 35.2475C10.2819 34.1218 10.2383 33.1724 10.3423 33.1597C10.4464 33.1469 10.6661 34.049 10.9814 35.1447C11.2967 36.2404 11.5883 37.1229 11.4865 37.1657C11.3847 37.2085 10.924 36.3724 10.6048 35.2475Z" fill="#213346"/>
<path d="M19.2443 36.1592C19.389 35.6857 19.4908 35.2407 19.5811 34.9195C19.6714 34.5983 19.7472 34.3986 19.8015 34.4069C19.8558 34.4151 19.8734 34.6253 19.8535 34.963C19.8261 35.4064 19.7472 35.8452 19.6186 36.2711C19.5447 36.5085 19.4507 36.7394 19.3377 36.9615C19.2866 37.0583 19.2303 37.1525 19.1693 37.2437C19.141 37.2864 19.1135 37.3285 19.0852 37.3667L18.9987 37.4741C18.7691 37.745 18.5808 37.8598 18.5449 37.826C18.5089 37.7923 18.6168 37.6106 18.7683 37.3247C18.7875 37.2894 18.8066 37.2497 18.8273 37.2129L18.8869 37.0891C18.9298 37.005 18.9635 36.9097 19.0109 36.8136C19.0905 36.6163 19.1709 36.3979 19.2443 36.1592Z" fill="#213346"/>
<path d="M21.5242 35.3052C21.6268 34.7288 21.6773 34.187 21.7538 33.7968C21.8303 33.4065 21.8923 33.1686 21.9459 33.1731C21.9995 33.1776 22.0278 33.4245 22.0286 33.82C22.0339 34.34 21.9943 34.8594 21.9099 35.3728C21.8592 35.6612 21.7803 35.9442 21.6742 36.2178C21.5865 36.4431 21.473 36.6578 21.336 36.8579C21.0956 37.1986 20.8768 37.3427 20.8377 37.3082C20.7987 37.2737 20.9349 37.0681 21.0956 36.7228C21.1886 36.5207 21.2681 36.3129 21.3337 36.1007C21.4136 35.8396 21.4772 35.574 21.5242 35.3052Z" fill="#213346"/>
<path d="M23.8308 33.8635C23.9449 33.3967 24.0237 32.9629 24.0972 32.6455C24.1706 32.328 24.2372 32.1344 24.2916 32.1404C24.3459 32.1464 24.3742 32.349 24.3681 32.677C24.3617 33.1068 24.3075 33.5345 24.2066 33.9528C24.1494 34.1865 24.0726 34.4151 23.977 34.6365C23.9288 34.7378 23.8859 34.8338 23.8339 34.9201C23.8086 34.9629 23.7857 35.0049 23.7574 35.044L23.6808 35.1543C23.4826 35.4312 23.3081 35.5588 23.2691 35.5295C23.2301 35.5002 23.3158 35.3141 23.439 35.0252C23.4543 34.9892 23.4711 34.9502 23.488 34.9119C23.5048 34.8736 23.5194 34.8308 23.5354 34.7873C23.5714 34.7032 23.6005 34.6087 23.6365 34.5119C23.7084 34.3153 23.7727 34.0969 23.8308 33.8635Z" fill="#213346"/>
<path d="M24.6122 33.1589C24.7354 32.8625 24.8364 32.5743 24.9183 32.3087C24.9566 32.1751 24.9948 32.049 25.0262 31.9282C25.0576 31.8074 25.0859 31.6955 25.1104 31.5927C25.2068 31.18 25.2581 30.9173 25.3155 30.9173C25.3729 30.9173 25.4127 31.1905 25.3836 31.6317C25.376 31.7413 25.3653 31.8621 25.3438 31.9905C25.3224 32.1188 25.2971 32.2554 25.2673 32.3987C25.1215 33.0191 24.8709 33.6111 24.5257 34.1503C24.4438 34.2726 24.3673 34.3897 24.2862 34.4925C24.205 34.5953 24.1293 34.6907 24.0566 34.7732C23.7589 35.1057 23.5293 35.2648 23.4925 35.2302C23.4558 35.1957 23.605 34.9706 23.8346 34.6119C23.892 34.5218 23.9548 34.4242 24.0175 34.3162C24.0803 34.2081 24.1469 34.091 24.2165 33.9725C24.3489 33.7278 24.4897 33.4539 24.6122 33.1589Z" fill="#213346"/>
<path d="M3.16683 27.3757C3.22422 27.1018 3.37576 26.9104 3.47831 26.942C3.58086 26.9735 3.60229 27.1994 3.54948 27.453C3.49667 27.7067 3.3857 27.9033 3.2778 27.8951C3.16989 27.8868 3.10943 27.6489 3.16683 27.3757Z" fill="white"/>
<path d="M3.26324 30.3348C3.16161 29.9713 3.11316 29.5956 3.11936 29.2188C3.12931 28.9299 3.17982 28.7535 3.23186 28.7535C3.34436 28.7535 3.41707 29.435 3.6413 30.235C3.86554 31.035 4.1487 31.6609 4.05227 31.7149C4.00712 31.7404 3.87166 31.6143 3.71401 31.3697C3.51314 31.048 3.36128 30.6994 3.26324 30.3348Z" fill="white"/>
<path d="M9.99107 27.297H9.95357C9.5602 27.2835 9.25102 27.0539 9.00306 26.8685L8.98775 26.8572C7.45649 25.722 5.67015 24.9631 3.77831 24.6441C3.68922 24.628 3.61019 24.5781 3.55834 24.5053C3.50648 24.4324 3.48599 24.3425 3.50129 24.2549C3.51658 24.1673 3.56645 24.0892 3.64008 24.0375C3.71371 23.9857 3.80517 23.9645 3.89464 23.9784C5.89568 24.3158 7.78515 25.1185 9.40484 26.3191L9.42015 26.3304C9.60841 26.4707 9.8028 26.6156 9.97882 26.6223C10.1548 26.6291 10.3515 26.5015 10.5589 26.3672L10.6179 26.3297C11.7934 25.5792 13.3186 25.1619 14.9135 25.1619C16.5076 25.1619 18.0337 25.5762 19.2092 26.3297L19.2681 26.3672C19.4755 26.5015 19.6699 26.6283 19.8482 26.6223C20.0265 26.6163 20.2186 26.4722 20.4069 26.3304L20.4222 26.3191C22.0419 25.1185 23.9313 24.3158 25.9324 23.9784C26.0219 23.9645 26.1133 23.9857 26.1869 24.0375C26.2606 24.0892 26.3105 24.1673 26.3258 24.2549C26.3411 24.3425 26.3206 24.4324 26.2687 24.5053C26.2169 24.5781 26.1378 24.628 26.0487 24.6441C24.1569 24.9631 22.3706 25.722 20.8393 26.8572L20.824 26.8685C20.576 27.0531 20.2668 27.2835 19.8735 27.297C19.4801 27.3105 19.1518 27.1004 18.89 26.9315L18.8334 26.8948C16.6355 25.4869 13.1923 25.4869 10.9944 26.8948L10.9378 26.9315C10.6837 27.0921 10.3699 27.297 9.99107 27.297Z" fill="#213346"/>
<path d="M14.9533 23.8951C14.8823 23.8951 14.8141 23.8674 14.7639 23.8181C14.7137 23.7689 14.6854 23.7021 14.6854 23.6324V20.136C14.6854 20.0663 14.7137 19.9995 14.7639 19.9503C14.8141 19.901 14.8823 19.8733 14.9533 19.8733C15.0243 19.8733 15.0925 19.901 15.1427 19.9503C15.1929 19.9995 15.2211 20.0663 15.2211 20.136V23.6324C15.2211 23.7021 15.1929 23.7689 15.1427 23.8181C15.0925 23.8674 15.0243 23.8951 14.9533 23.8951Z" fill="#213346"/>
<path d="M16.014 14.6126C15.8854 15.1694 15.9313 15.9124 16.3301 16.3619C16.7946 16.8873 17.5278 16.7792 18.1607 16.7537C18.9333 16.7196 19.7069 16.797 20.4566 16.9833C21.0688 17.1334 21.6153 17.5049 22.2375 17.6107C22.9194 17.727 23.0793 17.3713 22.6247 16.8812C22.0936 16.3064 21.3237 15.6948 20.6012 15.3615C19.1742 14.7218 17.6025 14.4553 16.0393 14.5878" fill="#E2A78D"/>
<path d="M16.086 13.7931C15.9574 14.3492 16.0025 15.0921 16.4013 15.5417C16.8658 16.067 17.599 15.9597 18.2319 15.9334C19.0045 15.8997 19.7781 15.9773 20.5278 16.1638C21.14 16.3177 21.6872 16.6846 22.3087 16.7912C22.9906 16.9075 23.1505 16.5511 22.6967 16.061C22.1648 15.4869 21.3957 14.8745 20.6724 14.5421C19.2458 13.9018 17.6744 13.635 16.1112 13.7676" fill="#E99A4F"/>
<path d="M22.5459 17.0755C22.4514 17.0747 22.3571 17.066 22.2642 17.0492C21.8908 16.9862 21.5502 16.8398 21.2211 16.6988C20.9764 16.5854 20.7228 16.4915 20.4627 16.4181C19.7382 16.2368 18.9904 16.1609 18.2433 16.1929C18.1752 16.1929 18.1063 16.1989 18.0374 16.2027C17.4413 16.235 16.6997 16.2777 16.2007 15.7111C15.7132 15.1618 15.6941 14.3018 15.8257 13.7322C15.8386 13.6762 15.8698 13.6259 15.9145 13.5888C15.9592 13.54 16.0209 13.5095 16.0874 13.5033C17.6988 13.3653 19.3191 13.6402 20.7895 14.301C21.4844 14.6215 22.2925 15.2271 22.8979 15.8815C23.315 16.3318 23.2423 16.6417 23.1612 16.7858C23.0946 16.9044 22.9331 17.0755 22.5459 17.0755ZM18.5808 15.6631C19.2606 15.662 19.9379 15.7449 20.5966 15.91C20.8852 15.9902 21.1668 16.0931 21.4385 16.2177C21.7522 16.3528 22.0507 16.4796 22.3568 16.5329C22.4648 16.56 22.5779 16.56 22.6859 16.5329C22.6798 16.4924 22.64 16.3903 22.4999 16.2395C21.9397 15.6331 21.1989 15.074 20.5607 14.7806C19.2322 14.185 17.7739 13.922 16.3163 14.0151C16.2466 14.4766 16.3071 15.0365 16.604 15.3712C16.9323 15.7412 17.455 15.7126 18.0084 15.6826L18.2211 15.6721C18.3413 15.6661 18.4614 15.6631 18.5808 15.6631Z" fill="#213346"/>
<path d="M14.0104 13.9912C14.139 14.5481 14.0939 15.291 13.6951 15.7406C13.2298 16.2659 12.4974 16.1578 11.8645 16.1316C11.0912 16.0975 10.3168 16.1746 9.5663 16.3604C8.95406 16.5105 8.40763 16.882 7.78543 16.9878C7.10431 17.1042 6.9436 16.7477 7.39819 16.2584C7.9339 15.6835 8.69921 15.0711 9.42242 14.7387C10.7663 14.1188 12.4768 13.8164 13.9836 13.9649" fill="#E2A78D"/>
<path d="M13.6461 13.1943C13.7747 13.7511 13.7296 14.4941 13.3308 14.9436C12.8655 15.4689 12.1324 15.3609 11.4994 15.3346C10.7268 15.3008 9.95322 15.3784 9.20353 15.565C8.59129 15.7151 8.04486 16.0866 7.42266 16.1924C6.74078 16.3087 6.58083 15.9523 7.03542 15.4629C7.56654 14.8881 8.33644 14.2757 9.05965 13.9432C10.4035 13.3234 12.1132 13.0209 13.6209 13.1688" fill="#E99A4F"/>
<path d="M7.18618 16.4766C6.79894 16.4766 6.63746 16.3062 6.57394 16.1899C6.49358 16.0458 6.42088 15.7396 6.8372 15.2894C7.44256 14.6349 8.25072 14.0286 8.94639 13.7081C10.416 13.0472 12.0353 12.7715 13.6461 12.9081C13.7124 12.9146 13.7738 12.9452 13.8183 12.9937C13.8633 13.0304 13.8946 13.0809 13.9071 13.137C14.0387 13.7066 14.0196 14.5667 13.5329 15.116C13.0324 15.6803 12.2908 15.6413 11.6961 15.6083L11.4903 15.5978C10.7433 15.5658 9.99539 15.6417 9.27088 15.8229C9.01083 15.8964 8.7572 15.9903 8.51246 16.1036C8.18338 16.2447 7.84282 16.391 7.46935 16.4548C7.37579 16.4701 7.28104 16.4774 7.18618 16.4766ZM7.04613 15.9333C7.15417 15.9597 7.26718 15.9597 7.37521 15.9333C7.68134 15.8807 7.9821 15.7531 8.29358 15.6188C8.56519 15.4937 8.84675 15.3906 9.13542 15.3104C9.91006 15.1176 10.7094 15.0374 11.5079 15.0725C11.5775 15.0725 11.6487 15.0792 11.7206 15.083C12.2739 15.113 12.7966 15.1408 13.1257 14.7708C13.4219 14.4361 13.4824 13.8762 13.4127 13.4147C11.956 13.3228 10.4989 13.5871 9.17215 14.1839C8.53618 14.4766 7.7946 15.0357 7.2321 15.6421C7.09205 15.7907 7.05226 15.8927 7.04613 15.9333Z" fill="#213346"/>
<path d="M26.0556 18.2996C25.5964 14.8414 23.364 11.3255 21.603 9.04329L21.0673 8.64779L25.6592 8.49319C26.5416 11.6527 26.7719 15.0928 26.0556 18.2996Z" fill="#CE7149"/>
<path d="M19.0913 9.07014C19.2752 9.14249 19.4511 9.23299 19.6163 9.34031C19.7512 9.42684 19.8762 9.52755 19.989 9.6405C20.1811 9.83787 20.253 10.0007 20.201 10.0593C20.1489 10.1178 19.9821 10.0698 19.751 9.97296C19.6354 9.92417 19.5007 9.86639 19.3538 9.80185C19.2068 9.73731 19.0477 9.67052 18.8747 9.60297C18.7017 9.53543 18.538 9.47765 18.3872 9.42286C18.2364 9.36808 18.0964 9.3223 17.9785 9.28027C17.7428 9.19397 17.589 9.11967 17.5959 9.03862C17.6028 8.95757 17.7658 8.88853 18.0428 8.87802C18.2042 8.87179 18.3659 8.8826 18.5249 8.91029C18.7187 8.94489 18.9084 8.99847 19.0913 9.07014Z" fill="white"/>
<path d="M7.05535 9.96705C9.28928 9.60382 11.5224 10.2162 13.7135 10.6425C15.9329 11.0725 18.0758 11.086 20.2951 10.5869C23.2339 9.92577 27.036 8.49838 28.461 5.24963C28.5533 5.03907 28.6328 4.82331 28.699 4.60348C27.1362 5.69916 25.0928 5.54832 23.364 4.82862C21.6352 4.10892 20.1145 2.89466 18.5043 1.88903C16.8941 0.883403 15.0865 0.0683907 13.252 0.272519C11.4696 0.470642 9.59693 1.61286 8.24769 2.89916C7.73762 3.37558 7.31697 3.93621 7.00484 4.55545C6.73468 5.1123 6.68341 5.9213 6.21887 6.33406C5.99999 6.52843 5.71453 6.59372 5.45356 6.7153C4.2681 7.2759 3.83647 8.89163 3.64438 10.3175C3.24872 13.2443 3.37346 16.2462 3.78826 19.1731" fill="#E99A4F"/>
<path d="M26.3265 18.5366C26.2976 18.5365 26.2687 18.5327 26.2408 18.5253C26.197 18.5143 26.1558 18.4949 26.1196 18.4683C26.0835 18.4416 26.0529 18.4082 26.03 18.37C26.0069 18.3318 25.9918 18.2896 25.9854 18.2457C25.9791 18.2018 25.9816 18.1571 25.9928 18.1141C26.8684 14.785 26.4084 11.8754 25.4495 8.53132C25.4359 8.48824 25.4313 8.44299 25.4359 8.39818C25.4404 8.35331 25.4541 8.30985 25.476 8.27023C25.498 8.23068 25.5278 8.19578 25.5637 8.16764C25.5996 8.13957 25.6409 8.11878 25.6851 8.10655C25.7294 8.09432 25.7757 8.09094 25.8212 8.09649C25.8668 8.10212 25.9108 8.11661 25.9506 8.13912C25.9904 8.16164 26.0252 8.19173 26.053 8.2276C26.0807 8.26355 26.1009 8.30452 26.1122 8.3482C27.1018 11.8004 27.5732 14.8075 26.6602 18.2829C26.6411 18.3555 26.5979 18.4197 26.5375 18.4656C26.4771 18.5115 26.4029 18.5365 26.3265 18.5366Z" fill="#213346"/>
<path d="M6.48138 10.9841C6.48138 11.1042 6.48138 11.2227 6.47449 11.3406L5.76582 13.4036L5.52705 14.097C5.28751 14.5383 5.0296 14.9751 4.79082 15.4171C4.55205 15.8591 4.55893 16.2854 4.38904 16.7357C4.17313 17.2846 4.00817 17.8515 3.89618 18.4295C3.74312 17.6528 3.437 16.8783 3.34363 16.0918C3.71863 15.7818 3.95128 15.3248 4.06837 14.8543C4.19541 14.3447 4.19771 13.8141 4.20001 13.2895C4.49348 13.6383 4.68991 14.0555 4.77016 14.5008C4.77398 14.4843 4.77781 14.4663 4.78164 14.449C4.9898 13.4644 5.15459 12.4723 5.27603 11.4726C5.33113 11.574 5.38164 11.6768 5.42909 11.7826C5.51883 12.0241 5.5907 12.2717 5.64414 12.5233C5.64414 12.4985 5.65103 12.4753 5.65332 12.4483C5.762 11.6738 5.83393 10.894 5.86914 10.109C6.11605 10.3696 6.32235 10.6645 6.48138 10.9841Z" fill="#CE7149"/>
<path d="M25.8673 8.30856C25.1306 8.79344 24.341 9.19614 23.5132 9.50931C23.3441 9.57461 23.1734 9.6384 23.0028 9.69843C22.6362 9.82751 22.2673 9.94234 21.9007 10.0467C21.2433 10.2343 20.5943 10.3844 19.9821 10.5044C17.7627 10.9412 15.6199 10.9292 13.4005 10.5532C12.2265 10.3536 11.0418 10.1074 9.85022 9.97085L6.98721 10.0301C6.98721 10.0602 6.9941 10.0909 6.9964 10.1209L6.91527 10.1315L6.78747 10.4482L6.70175 10.659C6.71553 10.542 6.72471 10.4234 6.72777 10.3033C6.73391 10.0996 6.72495 9.89566 6.70099 9.69318L9.42241 9.63689C9.07358 9.71239 8.71955 9.7626 8.36323 9.78699H8.47573C8.84506 9.77371 9.21203 9.72342 9.57088 9.63689C10.3362 9.45378 11.354 9.01851 12.0688 8.66954C11.9762 8.93371 11.7627 9.43727 11.4972 9.54008C12.5456 9.59787 13.3148 9.34871 14.341 9.13108C14.0951 9.46946 13.7596 9.73543 13.3706 9.90031L13.3308 9.91682C13.3737 9.91682 13.4165 9.91682 13.4602 9.91682C13.4732 9.91007 13.4854 9.90256 13.4977 9.89506C13.6709 9.79074 13.8352 9.67277 13.989 9.54234L13.7043 9.99262C14.8454 10.1254 16.0022 10.0119 17.0938 9.66016L17.5063 9.52733L17.9472 9.46729C17.8163 9.59862 17.4436 9.71569 17.2882 9.81776C17.057 9.97115 16.8026 10.0879 16.5344 10.1637C16.6392 10.1637 16.8015 10.3228 16.9056 10.3138C17.6808 10.2613 18.3895 9.94684 19.1502 9.77798C19.4112 9.7202 19.7288 9.60312 19.9921 9.54234C20.2216 9.48755 20.9181 9.26316 21.14 9.18061L21.0459 9.39975L21.3222 9.39374L21.1607 9.34947L20.9311 9.57461C20.9395 9.57461 20.8653 9.69018 20.8737 9.68718C22.1594 9.3277 24.4882 8.61926 25.7449 8.17273H25.8267C25.839 8.21551 25.8535 8.26128 25.8673 8.30856Z" fill="#CE7149"/>
<path d="M3.75531 19.5348C3.71837 19.5349 3.68165 19.5291 3.64664 19.5176C3.5601 19.4891 3.48856 19.4282 3.44768 19.3482C3.40681 19.2682 3.39992 19.1755 3.42852 19.0906C3.65812 18.4249 6.52878 10.0189 6.55786 9.93484C6.58689 9.84981 6.64915 9.77965 6.73097 9.73965C6.81277 9.69972 6.90742 9.69319 6.99409 9.72171C7.08076 9.75015 7.15234 9.81124 7.1931 9.89147C7.23386 9.97162 7.24046 10.0644 7.21143 10.1495C7.18235 10.2343 4.30786 18.6395 4.0821 19.3052C4.05901 19.3722 4.01506 19.4304 3.95643 19.4716C3.8978 19.5128 3.82745 19.5349 3.75531 19.5348Z" fill="#213346"/>
<path d="M4.10662 10.8722C4.16799 10.7214 4.2698 10.5896 4.40126 10.4909C4.50994 10.4159 4.61249 10.4001 4.6783 10.4452C4.74412 10.4902 4.76555 10.5863 4.75483 10.7018C4.71943 10.9733 4.61027 11.2304 4.43876 11.4463C4.36223 11.5341 4.27728 11.5866 4.19693 11.5716C4.11657 11.5566 4.05841 11.4733 4.03698 11.3465C4.01608 11.1851 4.04015 11.0212 4.10662 10.8722Z" fill="white"/>
<path d="M5.60891 9.33004C5.83084 9.22872 6.06809 9.26325 6.13467 9.40508C6.20125 9.54692 6.0788 9.74805 5.85686 9.85011C5.63493 9.95218 5.39768 9.9169 5.3311 9.77507C5.26452 9.63323 5.38697 9.4321 5.60891 9.33004Z" fill="white"/>
<path d="M6.62754 8.25003C6.78825 7.91532 7.01019 7.66992 7.16325 7.7202C7.31632 7.77048 7.33468 8.12395 7.1579 8.49393C6.98111 8.86391 6.69183 9.07705 6.55484 8.99299C6.41785 8.90894 6.46836 8.58549 6.62754 8.25003Z" fill="white"/>
<path d="M5.40074 5.24069C5.1875 4.98394 4.94368 4.75315 4.67447 4.55327C4.46477 4.40317 4.31324 4.33788 4.27957 4.3754C4.21146 4.4557 4.63084 4.90073 5.11069 5.47634L5.31656 5.721C5.15455 5.66884 4.98396 5.64719 4.81375 5.65721C4.66069 5.67071 4.57191 5.71499 4.56962 5.76452C4.56732 5.81405 4.64615 5.86509 4.77549 5.91462C4.90482 5.96415 5.07166 6.02343 5.25763 6.09023C5.4436 6.15702 5.61044 6.22231 5.73977 6.26358L5.7987 6.28084C5.93033 6.42193 6.0237 6.49998 6.0635 6.47747C6.10329 6.45495 6.06885 6.29435 5.95559 6.06471C5.80397 5.7698 5.61776 5.49326 5.40074 5.24069Z" fill="#213346"/>
<path d="M14.5286 9.09372C14.4872 9.11474 14.4383 9.14175 14.3831 9.17327C14.328 9.20479 14.2668 9.24081 14.2018 9.28059L14.1008 9.34288L13.9951 9.40892L13.7709 9.55001L13.6538 9.62505C13.6339 9.63706 13.6148 9.64907 13.5941 9.66033L13.5344 9.69635C13.4543 9.74333 13.3732 9.78911 13.2911 9.83368C13.2092 9.87646 13.1265 9.91774 13.0446 9.95601L12.9819 9.98303C12.962 9.99278 12.9413 10.001 12.9199 10.01L12.7974 10.0588C12.7155 10.0888 12.636 10.1189 12.5579 10.1406C12.5189 10.1541 12.4814 10.1624 12.4439 10.1736C12.4064 10.1849 12.3673 10.1917 12.3344 10.2014L12.2311 10.2239L12.1354 10.2412C12.075 10.2502 12.0206 10.2584 11.9747 10.263C11.9288 10.2675 11.8921 10.2712 11.8668 10.2742L11.827 10.2795L11.8584 10.3027C11.8886 10.3246 11.9203 10.3444 11.9533 10.362C12.0048 10.3905 12.0582 10.4157 12.1133 10.4371L12.2173 10.4693C12.2541 10.4783 12.2939 10.4873 12.3352 10.4956C12.3765 10.5039 12.4209 10.5091 12.4661 10.5129C12.5112 10.5166 12.5594 10.5196 12.6076 10.5196C12.7103 10.5199 12.8127 10.5114 12.9138 10.4941C12.967 10.486 13.0195 10.475 13.0714 10.4611L13.1479 10.4401L13.2245 10.4145C13.3299 10.3781 13.4323 10.3337 13.5306 10.2817C13.6268 10.2296 13.7196 10.1718 13.8084 10.1084L13.8727 10.0603C13.8934 10.0446 13.9133 10.0273 13.9331 10.0108C13.9737 9.97777 14.0097 9.944 14.0487 9.90873C14.119 9.84322 14.1855 9.7738 14.2477 9.70085C14.2775 9.66633 14.3051 9.63181 14.3319 9.59804L14.4046 9.49898C14.4497 9.43368 14.4888 9.3729 14.5209 9.31736C14.553 9.26183 14.5798 9.2123 14.5974 9.16727C14.615 9.12224 14.6326 9.09222 14.6426 9.06821L14.6571 9.03143L14.6212 9.04794C14.6036 9.05545 14.5699 9.07196 14.5286 9.09372Z" fill="#213346"/>
<path d="M17.7612 9.55661L17.602 9.62648C17.5416 9.65425 17.4742 9.68577 17.4 9.71804C17.364 9.7353 17.3235 9.75399 17.2875 9.77125L17.1673 9.82753L16.9133 9.94836C16.8689 9.96795 16.8245 9.98963 16.7793 10.0114C16.7564 10.0227 16.7342 10.0332 16.7104 10.043L16.6416 10.0753C16.5497 10.1195 16.4548 10.16 16.3622 10.205C16.2696 10.25 16.174 10.2914 16.0806 10.3312L16.011 10.3619C15.988 10.3732 15.965 10.3829 15.9421 10.3926C15.8954 10.4121 15.8502 10.4317 15.8059 10.4534C15.7155 10.4902 15.6291 10.5323 15.5457 10.5668C15.5036 10.5848 15.463 10.6021 15.424 10.6209C15.3849 10.6396 15.3474 10.6538 15.3092 10.6703C15.2326 10.7048 15.1668 10.7349 15.1064 10.7619L14.9472 10.8369C14.9028 10.8579 14.8707 10.8759 14.8439 10.8887L14.8071 10.909L14.8477 10.918C14.8745 10.9232 14.9135 10.93 14.9625 10.9367C15.0218 10.9457 15.0816 10.9514 15.1416 10.9541C15.218 10.9577 15.2947 10.9577 15.3712 10.9541C15.4133 10.9541 15.4576 10.9503 15.5036 10.9466C15.5495 10.9428 15.5954 10.9367 15.6444 10.9307C15.7408 10.9195 15.8411 10.8992 15.9451 10.8767C15.9964 10.8647 16.0485 10.8505 16.0982 10.8355C16.1242 10.8287 16.151 10.8212 16.1747 10.813L16.2513 10.786C16.3576 10.7522 16.461 10.7108 16.565 10.6636C16.6691 10.6163 16.7686 10.5653 16.8635 10.5083L16.9354 10.467C16.9592 10.4527 16.9814 10.4377 17.0043 10.4227C17.0495 10.3927 17.0946 10.3634 17.1375 10.3326C17.2217 10.2688 17.3028 10.208 17.374 10.1427L17.4773 10.0475C17.5094 10.016 17.5393 9.98288 17.5684 9.95286C17.6212 9.89748 17.6708 9.83909 17.7168 9.778C17.7537 9.7317 17.788 9.68329 17.8194 9.63324C17.8462 9.59196 17.8653 9.55819 17.8783 9.53493L17.8982 9.49808L17.8584 9.51241C17.8423 9.52292 17.8064 9.5371 17.7612 9.55661Z" fill="#213346"/>
<path d="M21.8563 8.61402C21.812 8.64929 21.7576 8.68907 21.6956 8.7371C21.665 8.76036 21.6329 8.78588 21.5992 8.81215L21.4913 8.89395C21.4546 8.92247 21.4148 8.95323 21.3773 8.98325L21.2541 9.08081C21.1714 9.14686 21.0796 9.21065 20.99 9.28119C20.9426 9.31421 20.8967 9.34948 20.8492 9.38475C20.8262 9.40202 20.8025 9.42003 20.778 9.43654L20.7053 9.48832C20.6097 9.56337 20.5079 9.62716 20.4099 9.6977C20.312 9.76824 20.2094 9.83579 20.1084 9.90033L20.0319 9.94911C20.0081 9.96637 19.9829 9.98213 19.9553 9.99789C19.9056 10.0294 19.8566 10.0602 19.8084 10.0924C19.7104 10.151 19.6178 10.2148 19.526 10.2681L19.3936 10.3506C19.3515 10.3776 19.3079 10.4001 19.2681 10.4257L19.1525 10.5007L19.0469 10.5637C18.9803 10.6043 18.9222 10.6388 18.8732 10.6703C18.8242 10.7018 18.7867 10.7243 18.7607 10.7454L18.7209 10.7724H18.7691C18.8005 10.7724 18.8456 10.7724 18.9038 10.7686C18.9735 10.7657 19.0429 10.7592 19.112 10.7491L19.2398 10.7303C19.2842 10.7221 19.3301 10.7123 19.3783 10.7011C19.4265 10.6898 19.4778 10.6793 19.5313 10.6651C19.5849 10.6508 19.6354 10.6343 19.6898 10.6178C19.7984 10.5848 19.9094 10.5427 20.0242 10.4924C20.0808 10.4677 20.1375 10.4407 20.1949 10.4129C20.2239 10.3994 20.253 10.3859 20.2813 10.3701L20.3663 10.3236C20.4811 10.2628 20.5913 10.19 20.7023 10.118C20.8132 10.0459 20.9158 9.96412 21.0137 9.87931L21.0903 9.81627C21.1148 9.79601 21.1377 9.7735 21.1607 9.75173C21.2066 9.70746 21.2525 9.66468 21.2954 9.62115C21.3796 9.5311 21.4599 9.44479 21.5288 9.35549L21.6283 9.22565C21.6597 9.18288 21.6864 9.13935 21.714 9.09958C21.7416 9.0598 21.766 9.01928 21.7905 8.981L21.8518 8.86993C21.885 8.80982 21.915 8.74791 21.9413 8.68457C21.9635 8.63203 21.9796 8.59001 21.9903 8.56149L22.0056 8.51721L21.9658 8.54423C21.9375 8.55549 21.9007 8.5795 21.8563 8.61402Z" fill="#213346"/>
<path d="M5.74513 12.6274C5.74513 12.6026 5.74513 12.5779 5.73977 12.5523C5.73441 12.5028 5.72905 12.4548 5.7237 12.4068C5.71834 12.3587 5.70686 12.3129 5.69844 12.2672C5.69075 12.2229 5.68053 12.1791 5.66783 12.1358C5.65558 12.0931 5.64334 12.0525 5.63186 12.0128C5.62038 11.973 5.60278 11.9377 5.589 11.9002C5.57523 11.8627 5.55992 11.8311 5.54691 11.7989C5.5339 11.7666 5.51477 11.7388 5.50023 11.7111C5.47603 11.6636 5.44814 11.6179 5.41681 11.5745C5.39079 11.5377 5.37013 11.5099 5.35635 11.4912L5.33416 11.4619L5.34257 11.4972L5.36936 11.5947C5.38237 11.636 5.39462 11.6871 5.40686 11.7448C5.41375 11.7734 5.42064 11.8041 5.42829 11.8364C5.43594 11.8687 5.439 11.9032 5.44513 11.9392C5.45125 11.9752 5.46043 12.0143 5.46349 12.0495C5.46655 12.0848 5.47268 12.1246 5.47727 12.1689C5.48186 12.2131 5.48492 12.2514 5.48798 12.2942C5.49104 12.337 5.4964 12.3805 5.49564 12.4255C5.49487 12.4705 5.49564 12.5156 5.49564 12.5614C5.49564 12.5846 5.49564 12.6079 5.49564 12.6311V12.7009C5.49564 12.748 5.49411 12.7953 5.49104 12.8428C5.49104 12.8908 5.48645 12.9381 5.48263 12.9861C5.47421 13.0814 5.46732 13.1775 5.45507 13.2713L5.44742 13.3418L5.43824 13.4124C5.43212 13.4582 5.42676 13.5039 5.42064 13.5497C5.4061 13.639 5.39615 13.7276 5.38161 13.8101C5.37548 13.8522 5.36936 13.8927 5.364 13.9317C5.35865 13.9707 5.35176 14.0068 5.34564 14.0458C5.33492 14.1208 5.32497 14.1861 5.31579 14.2462C5.30661 14.3062 5.30048 14.3587 5.29513 14.4015C5.28977 14.4443 5.28518 14.4765 5.28288 14.5028C5.28058 14.5291 5.28288 14.5388 5.28288 14.5388L5.30048 14.5073L5.34717 14.4165C5.36706 14.3767 5.38926 14.3287 5.41451 14.2724C5.43977 14.2161 5.46579 14.1531 5.49104 14.0826L5.53237 13.9722C5.54462 13.9343 5.55763 13.8945 5.5714 13.8529C5.59895 13.7711 5.62115 13.6826 5.64793 13.591C5.65941 13.5452 5.66936 13.4979 5.67931 13.4507L5.69462 13.3756L5.7061 13.3006C5.7237 13.203 5.73441 13.1017 5.74283 13.0004C5.74742 12.9501 5.74742 12.8983 5.74972 12.8503C5.75234 12.8003 5.75234 12.7502 5.74972 12.7002L5.74513 12.6274Z" fill="#213346"/>
<path d="M4.81299 14.3514L4.79538 14.2808C4.78926 14.2575 4.78237 14.2343 4.77472 14.2118C4.76018 14.166 4.74717 14.121 4.72957 14.0782C4.69881 13.9947 4.66198 13.9134 4.61936 13.835C4.59947 13.7975 4.57957 13.76 4.55814 13.7277C4.53671 13.6954 4.51528 13.6617 4.49385 13.6317C4.45501 13.5769 4.41284 13.5246 4.36758 13.4748C4.32702 13.4305 4.29105 13.3945 4.25737 13.366C4.2237 13.3375 4.19845 13.3165 4.18084 13.3029L4.15253 13.2827L4.16936 13.3127C4.18008 13.3322 4.19691 13.3607 4.21681 13.3975C4.23671 13.4343 4.26044 13.4778 4.28493 13.5288C4.30941 13.5799 4.33697 13.6384 4.36146 13.7022C4.37523 13.7337 4.38824 13.7667 4.40125 13.802C4.41426 13.8373 4.42727 13.8726 4.43952 13.9093C4.46554 13.9844 4.4885 14.0594 4.50993 14.145C4.5214 14.1855 4.52982 14.2283 4.53977 14.2703C4.54513 14.2921 4.54972 14.3131 4.55355 14.3348L4.56579 14.4001C4.58186 14.4872 4.59411 14.5765 4.60406 14.6665C4.61401 14.7566 4.6186 14.8459 4.62013 14.9352V15.002C4.62128 15.0238 4.62128 15.0455 4.62013 15.0673C4.62013 15.1116 4.62013 15.1544 4.62013 15.1971C4.62013 15.2399 4.6163 15.2819 4.61248 15.3225C4.60865 15.363 4.60559 15.4043 4.60023 15.4433C4.59487 15.4823 4.59181 15.5183 4.58646 15.5574C4.5811 15.5964 4.57651 15.6324 4.56962 15.6647C4.5589 15.733 4.54589 15.796 4.53441 15.8523C4.52294 15.9086 4.51069 15.9574 4.50151 15.9979L4.47855 16.0924C4.47319 16.115 4.47089 16.1262 4.47089 16.1262L4.49156 16.0984C4.50533 16.0804 4.52523 16.0534 4.54896 16.0181C4.57268 15.9829 4.59947 15.9378 4.62549 15.8853C4.65743 15.8266 4.68604 15.7663 4.7112 15.7044C4.72651 15.6707 4.73799 15.6347 4.75176 15.5971C4.76554 15.5596 4.77702 15.5221 4.7885 15.4801C4.79998 15.438 4.81069 15.3975 4.81987 15.354C4.82906 15.3105 4.83824 15.2662 4.84513 15.2204C4.85202 15.1746 4.85814 15.1281 4.86273 15.0808C4.86273 15.0568 4.86732 15.0328 4.86885 15.0095V14.9345C4.8719 14.8363 4.86883 14.7381 4.85967 14.6403C4.84955 14.5432 4.83397 14.4467 4.81299 14.3514Z" fill="#213346"/>
<path d="M26.0602 10.1405C26.0173 10.1157 25.8803 10.2463 25.7242 10.5022C25.6814 10.5714 25.6423 10.6428 25.6071 10.7161C25.5666 10.7911 25.5306 10.8804 25.4923 10.972C25.4149 11.1718 25.3535 11.3773 25.3086 11.5866C25.2658 11.7964 25.2402 12.0092 25.2321 12.223C25.2321 12.3213 25.2321 12.4144 25.2321 12.5022C25.2321 12.59 25.2444 12.6703 25.2543 12.7438C25.2956 13.0395 25.3691 13.2121 25.4181 13.2061C25.5268 13.1919 25.4946 12.4894 25.676 11.6609C25.8574 10.8324 26.1543 10.1952 26.0602 10.1405Z" fill="#213346"/>
<path d="M25.4579 5.72612C25.4885 5.6961 25.5161 5.66834 25.5405 5.64282C25.6385 5.54076 25.6844 5.47697 25.6683 5.45821C25.6523 5.43944 25.5398 5.49048 25.3576 5.59254C25.3678 5.57853 25.3709 5.56802 25.3668 5.56102C25.3423 5.51599 25.1158 5.59479 24.7546 5.70286C24.6643 5.72988 24.5655 5.75989 24.4584 5.78616C24.3513 5.81243 24.2372 5.8417 24.1171 5.87096C23.8752 5.9235 23.6089 5.97228 23.3257 6.0068C23.0426 6.04132 22.7717 6.05258 22.5237 6.05708C22.4005 6.05708 22.2826 6.05708 22.1724 6.05708C22.0622 6.05708 21.9589 6.04883 21.8663 6.04432C21.489 6.02181 21.2541 5.99779 21.238 6.04432C21.2219 6.09085 21.4462 6.19442 21.8311 6.28222C21.9359 6.30655 22.0419 6.32534 22.1487 6.33851C22.2635 6.35727 22.3875 6.36552 22.5183 6.37528C22.802 6.38948 23.0864 6.38094 23.3686 6.34976C23.6399 6.31647 23.9081 6.26227 24.1706 6.18766C23.8506 6.31424 23.5227 6.42052 23.1888 6.50586C22.8513 6.58802 22.5087 6.64869 22.1632 6.68747C22.0033 6.70098 21.851 6.71824 21.7087 6.72125C21.6367 6.72125 21.5678 6.73025 21.5013 6.73025H21.3092C20.8209 6.73025 20.5132 6.70098 20.5025 6.75276C20.4979 6.77603 20.5691 6.81055 20.7053 6.85408L20.8186 6.88785C20.8607 6.89836 20.9066 6.90736 20.9556 6.91787C21.0676 6.94202 21.1807 6.96031 21.2946 6.97265L21.4936 6.99442C21.5625 7.00042 21.6352 7.00117 21.7102 7.00492C21.8632 7.01393 22.0201 7.00492 22.1893 7.00492C22.5558 6.98274 22.9196 6.92773 23.276 6.84057C23.6311 6.74916 23.9769 6.62608 24.3092 6.47284C24.4622 6.39779 24.6038 6.32875 24.7308 6.2477C24.7951 6.20943 24.8579 6.17265 24.916 6.13663L25.0798 6.02406C25.1734 5.95929 25.2636 5.88991 25.35 5.81618C25.3905 5.78466 25.4265 5.75539 25.4579 5.72612Z" fill="#213346"/>
<path d="M19.79 4.229C19.8543 4.19072 19.9178 4.15395 19.9752 4.11718L20.139 4.00536C20.2327 3.94078 20.3229 3.87139 20.4091 3.79748C20.4474 3.76521 20.4857 3.73594 20.5147 3.70667C20.5438 3.6774 20.5737 3.64888 20.5982 3.62337C20.6954 3.5213 20.7413 3.45676 20.726 3.43875C20.7107 3.42074 20.5966 3.47102 20.4145 3.57309C20.4244 3.55883 20.4275 3.54832 20.4237 3.54082C20.3992 3.49654 20.1734 3.57534 19.8114 3.6834C19.7211 3.70967 19.6224 3.73969 19.5153 3.76671C19.4081 3.79372 19.2941 3.82224 19.1739 3.85151C18.9329 3.90404 18.6658 3.95282 18.3826 3.98659C18.0994 4.02037 17.8285 4.03237 17.5813 4.03763C17.4573 4.03763 17.3395 4.03763 17.2293 4.03763C17.1191 4.03763 17.0158 4.02937 16.9232 4.02412C16.5466 4.00235 16.3109 3.97834 16.2948 4.02412C16.2788 4.0699 16.503 4.17421 16.888 4.26202C16.9844 4.28303 17.0908 4.30404 17.2056 4.3183C17.3204 4.33256 17.4443 4.34532 17.5752 4.35507C17.8589 4.36938 18.1433 4.36059 18.4255 4.32881C18.6968 4.2959 18.965 4.24169 19.2275 4.16671C18.9086 4.29405 18.5817 4.40109 18.2487 4.48716C17.9099 4.56923 17.5661 4.62964 17.2193 4.66802C17.0594 4.68153 16.9079 4.69879 16.7647 4.70179C16.6928 4.70179 16.6239 4.7108 16.5573 4.7108H16.366C15.877 4.7108 15.5693 4.68153 15.5586 4.73256C15.554 4.75582 15.6252 4.7911 15.7614 4.83462L15.8747 4.8684C15.9168 4.8789 15.9627 4.88791 16.0117 4.89841C16.1236 4.9225 16.2368 4.94079 16.3507 4.9532L16.5497 4.97421C16.6186 4.98097 16.6913 4.98172 16.7663 4.98547C16.9193 4.99447 17.0724 4.98547 17.2454 4.98547C17.6119 4.96292 17.9756 4.90791 18.3321 4.82112C18.6872 4.72971 19.033 4.60662 19.3653 4.45339C19.5191 4.37684 19.663 4.30779 19.79 4.229Z" fill="#213346"/>
<path d="M14.938 2.31605C14.9663 2.30104 14.9938 2.28378 15.0229 2.26652C15.0788 2.23125 15.1408 2.19748 15.2005 2.1577C15.2318 2.13969 15.2617 2.12018 15.2923 2.10067C15.3084 2.09091 15.3237 2.0804 15.3397 2.0714L15.3864 2.04138C15.4484 2.00085 15.5135 1.96258 15.5762 1.9198C15.639 1.87703 15.7017 1.83725 15.7653 1.79748L15.8112 1.76671C15.8265 1.75545 15.8418 1.7457 15.8571 1.73594C15.8885 1.71568 15.9191 1.69616 15.9482 1.67515C16.0086 1.63613 16.0653 1.5941 16.1211 1.55733L16.1977 1.50029C16.2237 1.48078 16.2489 1.46352 16.2742 1.44626L16.4089 1.34645C16.4487 1.31418 16.4854 1.28641 16.5137 1.26389C16.542 1.24138 16.5658 1.21962 16.5811 1.20611L16.5926 1.1956L16.6086 1.1911L16.741 1.15282L16.7885 1.13782L16.741 1.12356C16.7096 1.11455 16.6645 1.10179 16.6056 1.08979C16.5466 1.07778 16.4762 1.06352 16.3936 1.05226C16.3109 1.041 16.2176 1.03275 16.115 1.0275C16.0637 1.0275 16.0102 1.0275 15.9543 1.0275C15.8984 1.0275 15.8418 1.0275 15.7836 1.03275C15.6601 1.03903 15.537 1.05156 15.4147 1.07027C15.3512 1.08003 15.2869 1.09204 15.2219 1.10555L15.1239 1.12656L15.026 1.15057C14.8933 1.18445 14.763 1.2263 14.6357 1.2759C14.5061 1.32692 14.3804 1.3866 14.2591 1.45451C14.2293 1.47102 14.1994 1.48828 14.1704 1.5063L14.0839 1.56108C14.028 1.59935 13.9721 1.63613 13.9209 1.67815C13.8202 1.75604 13.7268 1.84242 13.6415 1.93631L13.5818 2.00311L13.5283 2.07215C13.4944 2.11527 13.4632 2.16039 13.4349 2.20723C13.4066 2.24938 13.381 2.29325 13.3584 2.33857C13.3477 2.35958 13.3377 2.37984 13.327 2.4001C13.3163 2.42037 13.3109 2.44138 13.3033 2.46089C13.2765 2.52817 13.2553 2.59743 13.2397 2.66802C13.23 2.71307 13.2234 2.7587 13.2198 2.80461C13.2198 2.83538 13.2198 2.85189 13.2198 2.85189L13.2512 2.81511C13.2727 2.7911 13.2979 2.75433 13.3362 2.7123C13.3744 2.67027 13.4181 2.61849 13.4739 2.56221L13.5153 2.52093L13.5619 2.4789C13.5933 2.45039 13.6255 2.42037 13.6622 2.3926C13.6989 2.36483 13.7334 2.33256 13.7747 2.30404L13.8344 2.25977L13.8979 2.21624C13.9829 2.15695 14.0785 2.10142 14.1765 2.04513L14.3295 1.96333L14.4061 1.92431C14.4321 1.9108 14.4589 1.89804 14.4864 1.88603C14.5951 1.83425 14.7091 1.78772 14.8232 1.74194C14.9119 1.70742 15.0007 1.6744 15.091 1.64288L15.0428 1.68266C15.0267 1.69616 15.0122 1.71042 14.9969 1.72468C14.967 1.75245 14.938 1.78022 14.9104 1.80873C14.8561 1.86413 14.805 1.92251 14.7573 1.98359C14.7359 2.01286 14.7145 2.04063 14.6954 2.06915C14.6762 2.09767 14.6586 2.12618 14.6426 2.15395C14.6138 2.20386 14.5882 2.2555 14.566 2.30855C14.5462 2.34955 14.5296 2.39195 14.5163 2.43538C14.504 2.4714 14.4964 2.50067 14.491 2.52018L14.4841 2.5517L14.514 2.53894C14.5331 2.53069 14.5607 2.51793 14.5943 2.50142L14.7114 2.43988L14.8568 2.35958L14.938 2.31605Z" fill="#213346"/>
<path d="M8.22856 5.92364C8.2219 5.88761 8.21348 5.84484 8.2033 5.79531L8.1681 5.63546C8.16044 5.60694 8.15356 5.57692 8.1459 5.54615C8.13825 5.51538 8.1306 5.48461 8.12218 5.45234C8.10458 5.3893 8.09004 5.32101 8.06861 5.25347C8.06095 5.21895 8.05101 5.18517 8.04029 5.1499C8.03493 5.13264 8.03034 5.11538 8.02575 5.09737L8.01044 5.04484C7.98902 4.97429 7.97141 4.90225 7.94845 4.8317C7.9255 4.76116 7.90483 4.68911 7.88493 4.61782L7.86886 4.56529C7.86197 4.54803 7.85738 4.53076 7.85203 4.5135C7.84131 4.47898 7.83136 4.44446 7.81912 4.41069C7.79998 4.3424 7.77549 4.27711 7.7556 4.21407L7.72422 4.12176C7.71274 4.09174 7.70356 4.06247 7.69361 4.03395L7.63621 3.87936L7.58646 3.75628C7.57269 3.72176 7.55968 3.69474 7.5505 3.67598L7.54361 3.66247V3.64596C7.54361 3.58818 7.54361 3.54165 7.54361 3.51088C7.54361 3.48011 7.54361 3.4621 7.54361 3.4621L7.51606 3.50187C7.49769 3.52814 7.47243 3.56716 7.43953 3.61819C7.40662 3.66923 7.37601 3.73227 7.3408 3.80656C7.3056 3.88086 7.26963 3.96566 7.23366 4.06022C7.21759 4.1075 7.19998 4.15703 7.18315 4.21031C7.16631 4.2636 7.15254 4.31688 7.13723 4.37242C7.10891 4.48424 7.08366 4.60431 7.06529 4.72889C7.05611 4.79093 7.04845 4.85472 7.04233 4.92026L7.0408 5.01632C7.0408 5.04934 7.03927 5.08236 7.03621 5.11538C7.02898 5.25092 7.03052 5.38678 7.0408 5.52213C7.05212 5.65848 7.07309 5.79389 7.10356 5.92739C7.11044 5.96041 7.1181 5.99343 7.12728 6.0257L7.1556 6.12326C7.17626 6.18705 7.19692 6.25009 7.22141 6.31013C7.26789 6.42746 7.32448 6.54068 7.39055 6.64859L7.438 6.72364L7.48927 6.79343C7.52156 6.83779 7.5563 6.88039 7.59335 6.92101C7.62647 6.95895 7.662 6.99479 7.69973 7.02833L7.75101 7.07561L7.80305 7.11613C7.86052 7.16103 7.92174 7.2012 7.98595 7.23621C8.02674 7.25899 8.06922 7.2788 8.113 7.29549L8.15815 7.3135L8.13136 7.27298C8.11453 7.24596 8.08621 7.21144 8.05483 7.16266C8.02345 7.11388 7.98749 7.05834 7.95228 6.99005L7.92396 6.93977L7.89718 6.88349C7.87881 6.84596 7.85891 6.80844 7.84208 6.76416C7.82524 6.71988 7.80458 6.67936 7.78927 6.63283C7.78085 6.61031 7.77243 6.58705 7.76325 6.56379L7.74029 6.48874C7.70738 6.39118 7.68213 6.28536 7.65534 6.17729C7.64463 6.12176 7.63315 6.06622 7.62167 6.00994L7.61019 5.92889C7.60405 5.90013 7.59945 5.87107 7.59641 5.84183C7.57805 5.72551 7.56657 5.60469 7.55509 5.48461C7.54743 5.3908 7.54208 5.29774 7.53825 5.20394L7.56274 5.26022C7.57116 5.27898 7.58034 5.29774 7.58953 5.31576C7.60866 5.35178 7.62626 5.3908 7.64616 5.42157C7.68473 5.48755 7.72682 5.55143 7.77243 5.61294C7.79463 5.64146 7.81606 5.66998 7.83825 5.69624C7.86044 5.72251 7.88264 5.74803 7.90483 5.77129C7.94585 5.81444 7.98955 5.85505 8.0357 5.89287C8.06983 5.92339 8.10618 5.95148 8.14437 5.97692C8.17575 5.99943 8.20177 6.01519 8.2209 6.0257L8.24922 6.04146C8.24922 6.04146 8.24922 6.0302 8.24922 6.00994C8.24922 5.98968 8.23468 5.95966 8.22856 5.92364Z" fill="#213346"/>
<path d="M12.0635 2.25892C12.0796 2.23941 12.0949 2.2199 12.1117 2.20189L12.1592 2.1441C12.2219 2.06905 12.2885 1.9895 12.3505 1.9092C12.4125 1.8289 12.4775 1.75086 12.5418 1.67431L12.5877 1.61502C12.6023 1.59476 12.6184 1.576 12.6337 1.55648C12.665 1.51821 12.6957 1.48144 12.724 1.44091C12.7852 1.36586 12.8403 1.29082 12.8962 1.21577C12.9237 1.17975 12.9497 1.14072 12.9727 1.10995C12.9957 1.07919 13.0232 1.04091 13.0492 1.00864L13.1793 0.824777C13.2176 0.766991 13.2505 0.71671 13.2788 0.674684C13.3071 0.632657 13.327 0.599637 13.3408 0.57262L13.3508 0.554609L13.3699 0.541851L13.5229 0.438286L13.5773 0.399261H13.5107C13.4663 0.399261 13.4028 0.403764 13.3224 0.412019C13.2421 0.420275 13.1434 0.431532 13.0324 0.451044C12.9214 0.470556 12.7974 0.498323 12.6635 0.533595C12.5969 0.553108 12.5273 0.57262 12.4561 0.595884C12.3849 0.619149 12.3122 0.645415 12.238 0.670931C12.0895 0.727967 11.9319 0.794007 11.7788 0.871306C11.7023 0.91033 11.6258 0.951606 11.5492 0.995884L11.4321 1.06343L11.3166 1.13472C11.1599 1.23542 11.0092 1.34466 10.865 1.46192C10.7203 1.581 10.5842 1.7099 10.4579 1.84767C10.4258 1.88069 10.3951 1.91521 10.3653 1.95048L10.2781 2.0563C10.2222 2.13134 10.1671 2.20039 10.1181 2.27468C10.0222 2.4175 9.93894 2.56815 9.86938 2.72496C9.85354 2.76249 9.83746 2.79926 9.82116 2.83528C9.80486 2.87131 9.79185 2.90808 9.78213 2.9456C9.75726 3.01516 9.7366 3.08607 9.72014 3.15798C9.70338 3.22373 9.6906 3.29039 9.68188 3.35761C9.68188 3.38913 9.67346 3.4199 9.66887 3.44992C9.66428 3.47994 9.66887 3.5092 9.66428 3.53772C9.65831 3.63532 9.66083 3.73324 9.67193 3.8304C9.67851 3.89207 9.6893 3.95324 9.70407 4.01352L9.71938 4.07731L9.74387 4.01652C9.76147 3.97675 9.77831 3.91896 9.80968 3.84917C9.84106 3.77937 9.87473 3.69457 9.92371 3.60301L9.95892 3.53247L10.001 3.45742C10.0291 3.40593 10.0597 3.35584 10.0928 3.30733C10.1265 3.25555 10.1587 3.20076 10.1992 3.14823L10.2574 3.06568L10.3209 2.98388C10.4043 2.87206 10.5038 2.75873 10.6056 2.64842L10.7671 2.48106L10.8528 2.40151C10.8803 2.37299 10.9094 2.34523 10.9393 2.31821C11.0571 2.20789 11.1834 2.10132 11.3104 1.99476C11.4099 1.91371 11.5102 1.83491 11.6166 1.75686L11.5714 1.82815C11.5569 1.85142 11.5439 1.87618 11.5309 1.9032C11.5048 1.95198 11.4788 1.99926 11.4543 2.04804C11.4104 2.14102 11.3716 2.23621 11.338 2.33322C11.3227 2.3805 11.3074 2.42553 11.2944 2.4698C11.2814 2.51408 11.2722 2.55836 11.263 2.60039C11.2459 2.67717 11.2335 2.75484 11.2255 2.83303C11.2183 2.8938 11.2152 2.95498 11.2163 3.01615C11.2163 3.06718 11.2163 3.10845 11.2163 3.13622L11.2209 3.179L11.25 3.15198C11.2714 3.13322 11.3013 3.10545 11.3372 3.07018L11.462 2.94335L11.615 2.77975C11.6418 2.74973 11.6694 2.71821 11.6985 2.68669C11.7275 2.65517 11.7559 2.6214 11.7857 2.58763C11.8431 2.51859 11.9082 2.44954 11.9678 2.3745C12.0023 2.33472 12.0329 2.2972 12.0635 2.25892Z" fill="#213346"/>
<path d="M14.4122 31.2122C13.9191 31.2121 13.4268 31.1717 12.9405 31.0914C12.9048 31.0864 12.8705 31.0744 12.8396 31.0561C12.8087 31.0378 12.782 31.0136 12.7609 30.9848C12.7398 30.9562 12.7249 30.9236 12.7169 30.8891C12.709 30.8545 12.7083 30.8188 12.7148 30.784C12.7213 30.7492 12.7349 30.7161 12.7547 30.6865C12.7746 30.657 12.8004 30.6317 12.8305 30.6122C12.8606 30.5927 12.8944 30.5793 12.9298 30.573C12.9653 30.5666 13.0018 30.5673 13.037 30.5751C13.0607 30.5751 15.3826 30.9841 16.4671 30.2246C16.605 30.133 16.7218 30.0139 16.8095 29.875C16.8972 29.736 16.9539 29.5805 16.976 29.4186C16.9794 29.3832 16.9902 29.3488 17.0076 29.3177C17.025 29.2864 17.0486 29.259 17.0772 29.2371C17.1056 29.2151 17.1384 29.199 17.1734 29.1899C17.2085 29.1806 17.2451 29.1785 17.281 29.1836C17.3169 29.1887 17.3513 29.2009 17.3822 29.2194C17.4132 29.238 17.44 29.2624 17.461 29.2915C17.482 29.3204 17.4968 29.3533 17.5044 29.3881C17.5121 29.4228 17.5125 29.4587 17.5056 29.4936C17.4728 29.7255 17.3912 29.9481 17.2659 30.1474C17.1406 30.3465 16.9744 30.518 16.7778 30.6509C16.1403 31.0989 15.2012 31.2122 14.4122 31.2122Z" fill="#213346"/>
<path opacity="0.5" d="M19.9439 19.9784C20.167 19.9784 20.348 19.801 20.348 19.5821C20.348 19.3633 20.167 19.1859 19.9439 19.1859C19.7207 19.1859 19.5398 19.3633 19.5398 19.5821C19.5398 19.801 19.7207 19.9784 19.9439 19.9784Z" fill="white"/>
<path d="M18.8112 21.5604C19.7795 21.5604 20.5645 20.7907 20.5645 19.8411C20.5645 18.8916 19.7795 18.1218 18.8112 18.1218C17.8428 18.1218 17.0579 18.8916 17.0579 19.8411C17.0579 20.7907 17.8428 21.5604 18.8112 21.5604Z" fill="#213346"/>
<path d="M19.5933 19.5161C20.1301 19.5161 20.5653 19.0894 20.5653 18.563C20.5653 18.0366 20.1301 17.6099 19.5933 17.6099C19.0566 17.6099 18.6214 18.0366 18.6214 18.563C18.6214 19.0894 19.0566 19.5161 19.5933 19.5161Z" fill="#F9CDB7"/>
<path d="M23.0043 12.6635C23.103 12.8414 23.1069 13.0275 23.012 13.0778C22.9171 13.1281 22.7602 13.0253 22.6615 12.8467C22.5627 12.668 22.5589 12.4827 22.6538 12.4324C22.7487 12.3821 22.9056 12.4849 23.0043 12.6635Z" fill="white"/>
<path d="M23.7436 14.25C23.8921 14.5217 23.9357 14.7829 23.8408 14.8331C23.7459 14.8834 23.5477 14.7033 23.3992 14.4309C23.2507 14.1585 23.2063 13.8981 23.302 13.8478C23.3977 13.7975 23.5944 13.9776 23.7436 14.25Z" fill="white"/>
<path d="M22.9186 10.8473C22.0377 11.1748 21.1345 11.4411 20.2155 11.6443C17.9961 12.1433 15.8533 12.1298 13.6339 11.6998C11.7076 11.3246 9.74844 10.8082 7.78467 10.9366C7.92801 10.6214 8.0852 10.3144 8.2561 10.0157L9.66503 9.98648C10.4793 10.078 11.2882 10.2371 12.0972 10.403C12.1247 10.415 12.1546 10.427 12.1875 10.4398L12.2916 10.472C12.3283 10.481 12.3681 10.49 12.4094 10.4983C12.4507 10.5066 12.4951 10.5118 12.5403 10.5156C12.5854 10.5193 12.6336 10.5223 12.6819 10.5223H12.6865C13.2551 10.6379 13.8237 10.7475 14.3946 10.8315C14.5653 10.8563 14.7382 10.8788 14.915 10.8975L14.8798 10.9171L14.9204 10.9261C14.9472 10.9313 14.9862 10.9381 15.0352 10.9448C15.0945 10.9538 15.1543 10.9595 15.2143 10.9621C15.2907 10.9658 15.3674 10.9658 15.4439 10.9621C15.4844 10.9621 15.528 10.9583 15.5724 10.9546C17.7084 11.0987 20.1719 10.8458 22.3974 10.0998C22.5765 10.3407 22.7464 10.5899 22.9186 10.8473Z" fill="#E2A78D"/>
<path d="M3.71397 19.5484C3.63086 19.5485 3.5505 19.5191 3.48786 19.4656C3.42522 19.412 3.38454 19.3379 3.37341 19.2572C2.89204 15.8613 2.83005 12.9352 3.18438 10.3101C3.46678 8.21627 4.12112 6.95472 5.18566 6.45416C5.2729 6.41289 5.36015 6.37912 5.44433 6.34534C5.59646 6.29662 5.73886 6.22248 5.86525 6.12621C6.13005 5.89056 6.2479 5.49431 6.37724 5.07555C6.45342 4.79616 6.5559 4.52433 6.68336 4.26354C7.72954 2.26279 9.93438 0.610258 12.1683 0.150221C15.2533 -0.49068 17.6632 1.09356 19.9951 2.62677C21.0841 3.34197 22.2099 4.08193 23.3747 4.56523C25.2619 5.34872 27.0841 5.27968 28.3744 4.37461L29.1872 3.80426L28.9048 4.74459C28.8351 4.97672 28.7513 5.20453 28.6538 5.42677C27.9589 7.002 26.3196 9.15586 22.4494 10.4317C19.94 11.2572 16.9101 11.5311 14.3456 11.1551C13.6377 11.0515 12.9252 10.906 12.2364 10.7649C10.4441 10.3986 8.75045 10.0527 6.98948 10.3393C6.94486 10.3466 6.89922 10.3451 6.85517 10.3351C6.81111 10.325 6.76951 10.3066 6.73273 10.2807C6.69596 10.2549 6.66473 10.2223 6.64083 10.1846C6.61693 10.1469 6.60082 10.1051 6.59344 10.0613C6.58605 10.0175 6.58752 9.97274 6.59778 9.92959C6.60803 9.88636 6.62686 9.84561 6.65319 9.80952C6.67951 9.77349 6.71283 9.7428 6.75123 9.71939C6.78963 9.69597 6.83236 9.68013 6.87698 9.67293C8.76423 9.36599 10.601 9.74122 12.3772 10.1037C13.0561 10.2425 13.7586 10.3866 14.4474 10.4872C16.9094 10.8482 19.8183 10.5885 22.2298 9.7915C24.1714 9.1506 26.703 7.8703 27.9091 5.3915C26.5316 5.96486 24.8349 5.89881 23.1045 5.18062C21.88 4.6718 20.726 3.91382 19.6101 3.18062C17.2959 1.66167 15.1094 0.225268 12.3091 0.806882C10.3002 1.22414 8.23693 2.77161 7.29255 4.56898C7.18752 4.79275 7.10325 5.02534 7.04076 5.26392C6.89918 5.73221 6.73846 6.26204 6.33056 6.62452C6.14485 6.77612 5.93242 6.89312 5.70377 6.96973C5.62724 6.99975 5.55454 7.02902 5.48719 7.06054C4.64918 7.45679 4.11959 8.54873 3.8701 10.3986C3.52035 12.9622 3.58311 15.8298 4.05607 19.1649C4.06849 19.2535 4.04452 19.3434 3.98942 19.4148C3.93431 19.4861 3.85259 19.533 3.76219 19.5453C3.74621 19.5475 3.7301 19.5485 3.71397 19.5484Z" fill="#213346"/>
<path d="M26.2959 19.2076C26.2049 19.2079 26.1175 19.1727 26.053 19.1098C25.9884 19.0469 25.9519 18.9614 25.9515 18.8722C25.9285 15.8012 22.1563 10.3468 22.1181 10.2921C22.0925 10.2554 22.0746 10.2142 22.0653 10.1707C22.0561 10.1273 22.0556 10.0824 22.064 10.0388C22.0724 9.99517 22.0894 9.95359 22.1142 9.91644C22.139 9.8793 22.171 9.84733 22.2084 9.82226C22.2458 9.79727 22.2878 9.77963 22.3321 9.77055C22.3764 9.76147 22.4221 9.76102 22.4666 9.76928C22.5111 9.77746 22.5535 9.79419 22.5914 9.81851C22.6293 9.84282 22.6619 9.87419 22.6875 9.91082C22.8474 10.1412 26.6158 15.5926 26.6403 18.8677C26.6406 18.9572 26.6049 19.0432 26.5408 19.1069C26.4767 19.1706 26.3895 19.2069 26.2982 19.2076H26.2959Z" fill="#213346"/>
<path d="M25.066 17.9528C25.1135 18.3012 25.139 18.6521 25.1426 19.0035C25.1426 19.1648 25.1426 19.3186 25.1311 19.462C25.1196 19.6053 25.1112 19.7389 25.0966 19.8605C25.0385 20.346 24.9436 20.6365 24.8946 20.6297C24.7798 20.6155 24.8839 19.4342 24.6788 18.0031C24.4867 16.5727 24.0627 15.462 24.1699 15.4185C24.2165 15.399 24.3857 15.6541 24.5747 16.1066C24.6222 16.22 24.6711 16.3445 24.7171 16.4819C24.763 16.6192 24.8081 16.7656 24.8533 16.9209C24.9457 17.2603 25.0168 17.6049 25.066 17.9528Z" fill="white"/>
<path d="M11.1582 21.5604C12.1265 21.5604 12.9115 20.7907 12.9115 19.8411C12.9115 18.8916 12.1265 18.1218 11.1582 18.1218C10.1898 18.1218 9.40485 18.8916 9.40485 19.8411C9.40485 20.7907 10.1898 21.5604 11.1582 21.5604Z" fill="#213346"/>
<path d="M11.9403 19.5161C12.477 19.5161 12.9122 19.0894 12.9122 18.563C12.9122 18.0366 12.477 17.6099 11.9403 17.6099C11.4035 17.6099 10.9683 18.0366 10.9683 18.563C10.9683 19.0894 11.4035 19.5161 11.9403 19.5161Z" fill="#F9CDB7"/>
<path d="M10.4541 20.8789C10.6772 20.8789 10.8582 20.7015 10.8582 20.4827C10.8582 20.2638 10.6772 20.0864 10.4541 20.0864C10.2309 20.0864 10.05 20.2638 10.05 20.4827C10.05 20.7015 10.2309 20.8789 10.4541 20.8789Z" fill="white"/>
<path d="M18.3367 20.8789C18.5599 20.8789 18.7408 20.7015 18.7408 20.4827C18.7408 20.2638 18.5599 20.0864 18.3367 20.0864C18.1135 20.0864 17.9326 20.2638 17.9326 20.4827C17.9326 20.7015 18.1135 20.8789 18.3367 20.8789Z" fill="white"/>
</g>
</g>
<defs>
<clipPath id="clip0_11_95">
<rect width="30" height="40" fill="white"/>
</clipPath>
</defs>
</svg>
